<svg id="Layer_1" data-name="Layer 1" xmlns="http://www.w3.org/2000/svg" xmlns:xlink="http://www.w3.org/1999/xlink" viewBox="0 0 456.86 456.86">
  <defs>
    <linearGradient id="linear-gradient" x1="228.43" y1="456.86" x2="228.43" gradientUnits="userSpaceOnUse">
      <stop offset="0" stop-color="#17426c"/>
      <stop offset="0.3" stop-color="#1f4a76"/>
      <stop offset="1" stop-color="#305989"/>
    </linearGradient>
  </defs>
  <title>modmore</title>
  <circle cx="228.43" cy="228.43" r="228.43" style="fill: url(#linear-gradient)"/>
  <g>
    <g>
      <path d="M122.71,256c15.18,3.3,31.34,13.53,31.34,35.31v38.27c0,10.57,0,21.78,15.84,21.78h7.25V389.3h-9.89c-36.29,0-52.13-22.76-52.13-52.45V293.29c0-15.18-16.49-18.16-16.49-18.16V236.86s16.49-3,16.49-18.15V175.17c0-29.7,15.84-52.46,52.13-52.46h9.89v37.94h-7.25c-15.84,0-15.84,11.22-15.84,21.78v38.27C154.05,242.47,137.89,252.7,122.71,256Z" transform="translate(-27.57 -27.57)" style="fill: #fff"/>
      <path d="M357.94,182.42c0-10.56,0-21.78-15.84-21.78h-7.25V122.7h9.89c36.29,0,52.13,22.77,52.13,52.46v43.55c0,15.18,16.5,18.15,16.5,18.15v38.27s-16.5,3-16.5,18.16v43.56c0,29.69-15.84,52.45-52.13,52.45h-9.89V351.35h7.25c15.84,0,15.84-11.21,15.84-21.78V291.3c0-21.77,16.16-32,31.35-35.31-15.19-3.3-31.35-13.52-31.35-35.3Z" transform="translate(-27.57 -27.57)" style="fill: #fff"/>
    </g>
    <path d="M274.64,237.69h41.24v37H274.64v41.24h-37V274.64H196.11v-37h41.57V196.11h37Z" transform="translate(-27.57 -27.57)" style="fill: #fff"/>
  </g>
</svg>
